<svg xmlns="http://www.w3.org/2000/svg" fill="none" viewBox="0 0 241 31" height="31" width="241">
<path fill="black" d="M0.261888 30V29.4929C3.55824 29.4929 3.68502 27.1263 3.68502 24.6751V3.33339C3.05111 2.15009 2.54398 1.68522 1.06484 1.68522H0.938062V1.22035H0.980323C1.74102 1.22035 1.95232 1.26261 2.71302 1.26261C3.47371 1.26261 4.27667 1.22035 4.86832 1.22035L17.293 26.8727L28.788 1.22035C29.1261 1.22035 29.5909 1.30487 30.4784 1.30487C30.9855 1.30487 31.5349 1.22035 32.2956 1.22035H32.5915V1.68522C30.7742 1.68522 30.5207 1.85426 30.5207 3.37565V27.8447C30.5207 29.3238 30.7742 29.4929 32.5915 29.4929V30H32.2956C31.4504 30 30.9855 29.8732 29.6332 29.8732C28.2386 29.8732 27.7737 30 26.9285 30H26.6327V29.4929C28.4921 29.4929 28.7035 29.3238 28.7035 27.8447V2.784L17.6311 27.5911L18.8567 30C18.4341 30 18.2228 29.9577 17.8424 29.9577C17.3775 29.9577 17.124 30 16.8281 30L4.27667 4.09409V24.6751C4.27667 27.1263 4.40345 29.4506 7.78432 29.4929V30H6.60102C6.17841 30 5.24867 29.8732 4.02311 29.8732C2.71302 29.8732 1.78328 30 1.40293 30H0.261888ZM36.5613 30V29.4929C38.4208 29.4929 38.6321 29.3238 38.6321 27.8447V3.37565C38.6321 1.85426 38.4208 1.68522 36.5613 1.68522V1.22035H36.8572C37.7024 1.22035 38.1672 1.34713 39.5619 1.34713C40.9142 1.34713 41.3791 1.22035 42.2243 1.22035H42.5201V1.68522C40.6606 1.68522 40.4493 1.85426 40.4493 3.37565V27.8447C40.4493 29.3238 40.6606 29.4929 42.5201 29.4929V30H42.2243C41.3791 30 40.9142 29.8732 39.5619 29.8732C38.1672 29.8732 37.7024 30 36.8572 30H36.5613ZM45.5778 30V29.4929C48.8741 29.4929 48.9586 27.1263 48.9586 24.6751V2.86852C48.3247 2.15009 47.9444 1.68522 46.5075 1.68522H46.4652V1.22035H46.5075C47.3527 1.22035 47.8176 1.26261 48.367 1.26261C48.9586 1.26261 49.508 1.22035 50.2265 1.22035L68.4409 26.4501V6.50296C68.4409 4.05183 68.3564 1.72748 64.9755 1.68522V1.22035H65.7785C66.5814 1.22035 67.5111 1.34713 68.779 1.34713C70.0468 1.34713 70.9765 1.22035 71.8218 1.22035H72.5402V1.68522C69.2016 1.68522 69.0325 4.05183 69.0325 6.50296V27.253L71.0188 30C70.3849 30 70.3004 29.9577 69.8355 29.9577C69.4129 29.9577 69.2861 30 68.7367 30L49.5503 3.46017V24.6751C49.5503 27.1263 49.7193 29.4506 53.1002 29.4929V30H52.3395C51.4943 30 50.5645 29.8732 49.339 29.8732C48.0289 29.8732 47.0991 30 46.2962 30H45.5778ZM72.6508 30V29.4929C75.0174 29.4083 75.8626 28.6899 77.0882 25.5626L85.5826 3.79826L84.4416 1.22035C84.7374 1.22035 85.1178 1.26261 85.4981 1.26261C85.7939 1.26261 86.1743 1.22035 86.4278 1.22035L97.7538 27.887C98.3454 29.2393 99.2329 29.4929 100.627 29.4929V30H100.078C99.6132 30 98.3877 29.8732 97.2044 29.8732C95.8943 29.8732 94.6687 30 94.2884 30H93.6967V29.4929C95.3871 29.4929 95.8943 29.1125 95.8943 28.4363C95.8943 28.225 95.852 28.0137 95.683 27.5911L93.4431 22.3508H78.9477L77.7221 25.4781C77.2995 26.4923 77.0882 27.3376 77.0882 27.887C77.0882 28.859 77.7221 29.4929 80.0464 29.4929V30H79.5393C78.6941 30 77.215 29.8732 76.2007 29.8732C75.7358 29.8732 74.1299 30 73.6228 30H72.6508ZM79.2012 21.7591H93.1896L85.8784 4.55895L79.2012 21.7591ZM110.394 30V29.4929C112.254 29.4929 112.465 29.3238 112.465 27.8447V3.37565C112.465 1.85426 112.254 1.68522 110.394 1.68522V1.22035H110.69C111.535 1.22035 112 1.34713 113.395 1.34713C114.747 1.34713 115.212 1.22035 116.057 1.22035H116.353V1.68522C114.493 1.68522 114.282 1.85426 114.282 3.37565V15.0397H130.637V3.37565C130.637 1.85426 130.426 1.68522 128.566 1.68522V1.22035H128.862C129.707 1.22035 130.172 1.34713 131.567 1.34713C132.919 1.34713 133.384 1.22035 134.229 1.22035H134.525V1.68522C132.666 1.68522 132.454 1.85426 132.454 3.37565V27.8447C132.454 29.3238 132.666 29.4929 134.525 29.4929V30H134.229C133.384 30 132.919 29.8732 131.567 29.8732C130.172 29.8732 129.707 30 128.862 30H128.566V29.4929C130.426 29.4929 130.637 29.3238 130.637 27.8447V15.6313H114.282V27.8447C114.282 29.3238 114.493 29.4929 116.353 29.4929V30H116.057C115.212 30 114.747 29.8732 113.395 29.8732C112 29.8732 111.535 30 110.69 30H110.394ZM135.794 30V29.4929C138.161 29.4083 139.006 28.6899 140.232 25.5626L148.726 3.79826L147.585 1.22035C147.881 1.22035 148.261 1.26261 148.642 1.26261C148.938 1.26261 149.318 1.22035 149.572 1.22035L160.897 27.887C161.489 29.2393 162.377 29.4929 163.771 29.4929V30H163.222C162.757 30 161.531 29.8732 160.348 29.8732C159.038 29.8732 157.812 30 157.432 30H156.84V29.4929C158.531 29.4929 159.038 29.1125 159.038 28.4363C159.038 28.225 158.996 28.0137 158.827 27.5911L156.587 22.3508H142.091L140.866 25.4781C140.443 26.4923 140.232 27.3376 140.232 27.887C140.232 28.859 140.866 29.4929 143.19 29.4929V30H142.683C141.838 30 140.359 29.8732 139.344 29.8732C138.88 29.8732 137.274 30 136.766 30H135.794ZM142.345 21.7591H156.333L149.022 4.55895L142.345 21.7591ZM168.586 30.7184L164.318 21.2943L164.74 21.083C168.375 27.9715 172.178 29.8732 175.897 29.8732C180.377 29.8732 183.335 26.9572 183.335 23.4073C183.335 20.3223 181.222 18.0824 176.193 16.2652L172.812 15.0397C169.262 13.7296 165.839 11.4897 165.839 7.39043C165.839 3.24887 169.262 0.797738 173.404 0.797738C175.813 0.797738 177.63 1.60069 178.517 1.60069C179.193 1.60069 179.532 1.22035 179.193 0.163826L179.658 -0.00521794L184.053 8.32017L183.631 8.53148C179.912 2.15009 176.108 1.34713 173.404 1.34713C169.389 1.34713 166.811 3.62922 166.811 6.84104C166.811 9.7993 168.84 11.532 173.615 13.2647L176.996 14.4903C181.898 16.2652 184.476 18.5473 184.476 22.393C184.476 27.4221 180.334 30.4226 175.897 30.4226C172.939 30.4226 170.741 29.1548 169.642 29.1548C169.009 29.1548 168.755 29.6197 169.051 30.5494L168.586 30.7184ZM185.443 30V29.4929C187.809 29.4083 188.655 28.6899 189.88 25.5626L198.375 3.79826L197.234 1.22035C197.529 1.22035 197.91 1.26261 198.29 1.26261C198.586 1.26261 198.966 1.22035 199.22 1.22035L210.546 27.887C211.137 29.2393 212.025 29.4929 213.419 29.4929V30H212.87C212.405 30 211.18 29.8732 209.996 29.8732C208.686 29.8732 207.461 30 207.08 30H206.489V29.4929C208.179 29.4929 208.686 29.1125 208.686 28.4363C208.686 28.225 208.644 28.0137 208.475 27.5911L206.235 22.3508H191.74L190.514 25.4781C190.091 26.4923 189.88 27.3376 189.88 27.887C189.88 28.859 190.514 29.4929 192.838 29.4929V30H192.331C191.486 30 190.007 29.8732 188.993 29.8732C188.528 29.8732 186.922 30 186.415 30H185.443ZM191.993 21.7591H205.982L198.67 4.55895L191.993 21.7591ZM213.961 30V29.4929C217.257 29.4929 217.342 27.1263 217.342 24.6751V2.86852C216.708 2.15009 216.328 1.68522 214.891 1.68522H214.848V1.22035H214.891C215.736 1.22035 216.201 1.26261 216.75 1.26261C217.342 1.26261 217.891 1.22035 218.61 1.22035L236.824 26.4501V6.50296C236.824 4.05183 236.74 1.72748 233.359 1.68522V1.22035H234.162C234.965 1.22035 235.894 1.34713 237.162 1.34713C238.43 1.34713 239.36 1.22035 240.205 1.22035H240.923V1.68522C237.585 1.68522 237.416 4.05183 237.416 6.50296V27.253L239.402 30C238.768 30 238.684 29.9577 238.219 29.9577C237.796 29.9577 237.669 30 237.12 30L217.933 3.46017V24.6751C217.933 27.1263 218.102 29.4506 221.483 29.4929V30H220.723C219.877 30 218.948 29.8732 217.722 29.8732C216.412 29.8732 215.482 30 214.679 30H213.961Z"></path>
</svg>
